# xmcd
#
# Track frame offsets:
#        150
#        11905
#        25235
#        38072
#        50395
#        62437
#        74625
#        87207
#        99177
#        111667
#        124455
#        136502
#
# Disc length: 2004 seconds
#
# Revision: 0
# Processed by: cddbd v1.5.1PL0 Copyright (c) Steve Scherf et al.
# Submitted via: ExactAudioCopy v0.95a5
#
DISCID=a107d20c
DTITLE=Joe Turner - Jumpin' The Blues
DYEAR=1900
DGENRE=Blues
TTITLE0=Wine-O-Baby Boogie
TTITLE1=B and O Blues
TTITLE2=Rocket Boogie "88".Part1
TTITLE3=Rocket Boogie "88".Part2
TTITLE4=Old Piney Brown's Gone
TTITLE5=Baby, Won't You Marry Me
TTITLE6=Skip Row Boogie
TTITLE7=Christmas Date Boogie
TTITLE8=Radar Blues
TTITLE9=Tell Me Pretty Baby
TTITLE10=Trouble Blues
TTITLE11=Half Tight Boogie
EXTD=
EXTT0=
EXTT1=
EXTT2=
EXTT3=
EXTT4=
EXTT5=
EXTT6=
EXTT7=
EXTT8=
EXTT9=
EXTT10=
EXTT11=
PLAYORDER=
